<svg width="40" height="40" viewBox="0 0 40 40" fill="none" xmlns="http://www.w3.org/2000/svg">
<rect width="40" height="40" rx="10" fill="#86868B" fill-opacity="0.16"/>
<path d="M27.9546 19.204C28.208 19.5593 28.3346 19.7369 28.3346 19.9998C28.3346 20.2628 28.208 20.4404 27.9546 20.7957C26.8162 22.392 23.909 25.8332 20.0013 25.8332C16.0936 25.8332 13.1864 22.392 12.048 20.7957C11.7946 20.4404 11.668 20.2628 11.668 19.9998C11.668 19.7369 11.7946 19.5593 12.048 19.204C13.1864 17.6077 16.0936 14.1665 20.0013 14.1665C23.909 14.1665 26.8162 17.6077 27.9546 19.204Z" stroke="#9B9893" stroke-width="1.5"/>
<path d="M22.5 20C22.5 18.6193 21.3807 17.5 20 17.5C18.6193 17.5 17.5 18.6193 17.5 20C17.5 21.3807 18.6193 22.5 20 22.5C21.3807 22.5 22.5 21.3807 22.5 20Z" stroke="#9B9893" stroke-width="1.5"/>
</svg>
